<svg width="215.6" height="74.701" viewBox="0 0 215.6 74.701" xmlns="http://www.w3.org/2000/svg"><g id="svgGroup" stroke-linecap="round" fill-rule="evenodd" font-size="9pt" stroke="#000" stroke-width="1mm" fill="#000" style="stroke:#000;stroke-width:1mm;fill:#000"><path d="M 215.6 42.5 L 215.6 74 L 213.7 74 L 213.7 42.3 Q 213.7 34.895 211.114 29.955 A 16.664 16.664 0 0 0 208.4 26.15 A 17.515 17.515 0 0 0 198.83 21.051 A 25.657 25.657 0 0 0 193.9 20.6 A 23.934 23.934 0 0 0 186.98 21.554 A 18.741 18.741 0 0 0 178.5 26.85 Q 173.783 31.933 172.902 40.952 A 44.776 44.776 0 0 0 172.7 45.3 L 172.7 74 L 170.7 74 L 170.7 20 L 172.7 20 L 172.7 34.2 A 21.681 21.681 0 0 1 175.188 28.155 A 17.863 17.863 0 0 1 180.3 22.75 Q 186 18.8 193.9 18.8 A 25.024 25.024 0 0 1 201.31 19.85 A 20.187 20.187 0 0 1 209.5 24.7 A 18.486 18.486 0 0 1 214.157 32.344 Q 215.6 36.713 215.6 42.5 Z M 132.8 36.5 L 132.8 20 L 134.7 20 L 134.7 74 L 132.8 74 L 132.8 57.5 Q 130.6 65 124.15 69.85 A 23.936 23.936 0 0 1 113.14 74.358 A 31.766 31.766 0 0 1 108.4 74.7 A 30.19 30.19 0 0 1 100.487 73.698 A 25.465 25.465 0 0 1 94.7 71.35 Q 88.7 68 85.4 61.75 A 27.856 27.856 0 0 1 82.645 53.535 A 37.534 37.534 0 0 1 82.1 47 A 36.914 36.914 0 0 1 82.778 39.759 A 27.552 27.552 0 0 1 85.4 32.25 Q 88.7 26 94.7 22.65 Q 100.7 19.3 108.4 19.3 A 29.631 29.631 0 0 1 116.118 20.262 A 23.295 23.295 0 0 1 124.15 24.15 Q 130.6 29 132.8 36.5 Z M 51.8 74 L 44.5 54.6 L 9.7 54.6 L 2.3 74 L 0 74 L 26.1 5.7 L 28.1 5.7 L 54.1 74 L 51.8 74 Z M 132.8 47 Q 132.8 39.3 129.65 33.45 Q 126.5 27.6 120.95 24.35 A 23.884 23.884 0 0 0 110.234 21.157 A 28.975 28.975 0 0 0 108.4 21.1 A 29.728 29.728 0 0 0 101.891 21.781 A 22.842 22.842 0 0 0 95.55 24.2 Q 90.1 27.3 87.1 33.15 A 26.55 26.55 0 0 0 84.614 40.744 A 36.342 36.342 0 0 0 84.1 47 A 36.031 36.031 0 0 0 84.674 53.588 A 26.391 26.391 0 0 0 87.1 60.85 Q 90.1 66.7 95.55 69.8 A 23.386 23.386 0 0 0 103.438 72.517 A 30.954 30.954 0 0 0 108.4 72.9 Q 115.4 72.9 120.95 69.65 Q 126.5 66.4 129.65 60.55 A 26.172 26.172 0 0 0 132.477 51.743 A 33.729 33.729 0 0 0 132.8 47 Z M 65.6 0 L 67.6 0 L 67.6 74 L 65.6 74 L 65.6 0 Z M 10.4 52.8 L 43.8 52.8 L 27.1 8.9 L 10.4 52.8 Z M 151.7 20 L 153.7 20 L 153.7 74 L 151.7 74 L 151.7 20 Z M 151.659 6.001 A 2.659 2.659 0 0 0 152.7 6.2 A 3.201 3.201 0 0 0 152.734 6.2 A 2.508 2.508 0 0 0 154.55 5.45 A 2.46 2.46 0 0 0 155.176 4.401 A 3.127 3.127 0 0 0 155.3 3.5 A 3.471 3.471 0 0 0 155.274 3.066 A 2.525 2.525 0 0 0 154.55 1.55 A 2.52 2.52 0 0 0 153.741 0.999 A 2.659 2.659 0 0 0 152.7 0.8 A 3.201 3.201 0 0 0 152.666 0.8 A 2.508 2.508 0 0 0 150.85 1.55 A 2.46 2.46 0 0 0 150.224 2.599 A 3.127 3.127 0 0 0 150.1 3.5 A 3.471 3.471 0 0 0 150.126 3.934 A 2.525 2.525 0 0 0 150.85 5.45 A 2.52 2.52 0 0 0 151.659 6.001 Z" vector-effect="non-scaling-stroke"/></g></svg>