<svg width="89.7" height="74.701" viewBox="0 0 89.7 74.701" xmlns="http://www.w3.org/2000/svg"><g id="svgGroup" stroke-linecap="round" fill-rule="evenodd" font-size="9pt" stroke="#000" stroke-width="1mm" fill="#000" style="stroke:#000;stroke-width:1mm;fill:#000"><path d="M 67.2 36.5 L 67.2 20 L 69.1 20 L 69.1 74 L 67.2 74 L 67.2 57.5 Q 65 65 58.55 69.85 A 23.936 23.936 0 0 1 47.54 74.358 A 31.766 31.766 0 0 1 42.8 74.7 A 30.19 30.19 0 0 1 34.887 73.698 A 25.465 25.465 0 0 1 29.1 71.35 Q 23.1 68 19.8 61.75 A 27.856 27.856 0 0 1 17.045 53.535 A 37.534 37.534 0 0 1 16.5 47 A 36.914 36.914 0 0 1 17.178 39.759 A 27.552 27.552 0 0 1 19.8 32.25 Q 23.1 26 29.1 22.65 Q 35.1 19.3 42.8 19.3 A 29.631 29.631 0 0 1 50.518 20.262 A 23.295 23.295 0 0 1 58.55 24.15 Q 65 29 67.2 36.5 Z M 67.2 47 Q 67.2 39.3 64.05 33.45 Q 60.9 27.6 55.35 24.35 A 23.884 23.884 0 0 0 44.634 21.157 A 28.975 28.975 0 0 0 42.8 21.1 A 29.728 29.728 0 0 0 36.291 21.781 A 22.842 22.842 0 0 0 29.95 24.2 Q 24.5 27.3 21.5 33.15 A 26.55 26.55 0 0 0 19.014 40.744 A 36.342 36.342 0 0 0 18.5 47 A 36.031 36.031 0 0 0 19.074 53.588 A 26.391 26.391 0 0 0 21.5 60.85 Q 24.5 66.7 29.95 69.8 A 23.386 23.386 0 0 0 37.838 72.517 A 30.954 30.954 0 0 0 42.8 72.9 Q 49.8 72.9 55.35 69.65 Q 60.9 66.4 64.05 60.55 A 26.172 26.172 0 0 0 66.877 51.743 A 33.729 33.729 0 0 0 67.2 47 Z M 0 0 L 2 0 L 2 74 L 0 74 L 0 0 Z M 86.1 20 L 88.1 20 L 88.1 74 L 86.1 74 L 86.1 20 Z M 86.059 6.001 A 2.659 2.659 0 0 0 87.1 6.2 A 3.201 3.201 0 0 0 87.134 6.2 A 2.508 2.508 0 0 0 88.95 5.45 A 2.46 2.46 0 0 0 89.576 4.401 A 3.127 3.127 0 0 0 89.7 3.5 A 3.471 3.471 0 0 0 89.674 3.066 A 2.525 2.525 0 0 0 88.95 1.55 A 2.52 2.52 0 0 0 88.141 0.999 A 2.659 2.659 0 0 0 87.1 0.8 A 3.201 3.201 0 0 0 87.066 0.8 A 2.508 2.508 0 0 0 85.25 1.55 A 2.46 2.46 0 0 0 84.624 2.599 A 3.127 3.127 0 0 0 84.5 3.5 A 3.471 3.471 0 0 0 84.526 3.934 A 2.525 2.525 0 0 0 85.25 5.45 A 2.52 2.52 0 0 0 86.059 6.001 Z" vector-effect="non-scaling-stroke"/></g></svg>