<svg width="44.9" height="55.201" viewBox="0 0 44.9 55.201" xmlns="http://www.w3.org/2000/svg"><g id="svgGroup" stroke-linecap="round" fill-rule="evenodd" font-size="9pt" stroke="#000" stroke-width="1mm" fill="#000" style="stroke:#000;stroke-width:1mm;fill:#000"><path d="M 44.9 23.701 L 44.9 55.201 L 43 55.201 L 43 23.501 Q 43 16.096 40.414 11.156 A 16.664 16.664 0 0 0 37.7 7.351 A 17.515 17.515 0 0 0 28.13 2.252 A 25.657 25.657 0 0 0 23.2 1.801 A 23.934 23.934 0 0 0 16.28 2.755 A 18.741 18.741 0 0 0 7.8 8.051 Q 3.083 13.134 2.202 22.153 A 44.776 44.776 0 0 0 2 26.501 L 2 55.201 L 0 55.201 L 0 1.201 L 2 1.201 L 2 15.401 A 21.681 21.681 0 0 1 4.488 9.356 A 17.863 17.863 0 0 1 9.6 3.951 Q 15.3 0.001 23.2 0.001 A 25.024 25.024 0 0 1 30.61 1.051 A 20.187 20.187 0 0 1 38.8 5.901 A 18.486 18.486 0 0 1 43.457 13.546 Q 44.9 17.914 44.9 23.701 Z" vector-effect="non-scaling-stroke"/></g></svg>